<svg width="25" height="25" viewBox="0 0 25 25" fill="none" xmlns="http://www.w3.org/2000/svg">
<path d="M6.65488 18.6266H18.8449C20.7449 18.6266 21.7449 17.6266 21.7449 15.7266V8.87341C21.7449 7.4927 20.6255 6.37341 19.2448 6.37341C14.4766 6.37341 11.0131 6.37341 6.24491 6.37341C4.8642 6.37341 3.74487 7.4927 3.74487 8.87341V15.7266C3.75487 17.6266 4.75488 18.6266 6.65488 18.6266Z" stroke="#3A3A3A" stroke-width="1.5" stroke-miterlimit="10" stroke-linecap="round" stroke-linejoin="round"/>
<path d="M10.7378 12.5V11.6075C10.7378 10.4994 11.5225 10.0456 12.4827 10.5997L13.2574 11.0459L14.0321 11.4922C14.9923 12.0462 14.9923 12.9538 14.0321 13.5078L13.2574 13.9541L12.4827 14.4003C11.5225 14.9544 10.7378 14.5006 10.7378 13.3925V12.5Z" stroke="#3A3A3A" stroke-width="1.2" stroke-miterlimit="10" stroke-linecap="round" stroke-linejoin="round"/>
</svg>
