<?xml version="1.0" encoding="UTF-8"?>
<svg version="1.1" xmlns="http://www.w3.org/2000/svg" width="1024" height="1536">
<path d="M0 0 C337.92 0 675.84 0 1024 0 C1024 506.88 1024 1013.76 1024 1536 C686.08 1536 348.16 1536 0 1536 C0 1029.12 0 522.24 0 0 Z " fill="#FEFEFE" transform="translate(0,0)"/>
<path d="M0 0 C13.48501543 13.14050774 18.96365268 30.07541073 19.2734375 48.70703125 C19.2760544 50.31249998 19.27339959 51.91798546 19.265625 53.5234375 C19.26949219 54.31814453 19.27335937 55.11285156 19.27734375 55.93164062 C19.26846564 61.3872385 18.82332537 66.67309887 18.140625 72.0859375 C19.0275 71.9828125 19.914375 71.8796875 20.828125 71.7734375 C24.140625 72.0859375 24.140625 72.0859375 27.015625 73.8359375 C30.32658058 78.89975191 30.20332381 83.21101765 29.140625 89.0859375 C27.64115799 92.92440596 25.88784718 96.52671077 24.015625 100.19140625 C21.49412395 105.20771908 19.9668464 110.47362512 18.37890625 115.84375 C16.66234189 120.33822451 14.34709595 123.13219823 10.5859375 126.10546875 C6.781707 130.74225448 6.17457792 135.98191021 5.015625 141.7734375 C4.53700112 144.04884131 4.05527099 146.32359412 3.5703125 148.59765625 C3.33876465 149.69424561 3.1072168 150.79083496 2.86865234 151.9206543 C2.0079333 155.66284827 0.92665965 159.29745893 -0.26757812 162.9453125 C-2.83803337 172.2430648 0.05064577 183.53134129 4.328125 191.8984375 C17.34404348 212.87703552 45.67512631 219.13408629 67.99609375 224.4609375 C74.66563087 226.00665938 81.3644012 227.37308667 88.078125 228.7109375 C96.53507204 230.40918853 104.30485666 232.38073847 112.140625 236.0859375 C113.06359375 236.50230469 113.9865625 236.91867187 114.9375 237.34765625 C130.78005339 245.15705051 142.51799027 259.49920343 148.44824219 275.98144531 C153.33502397 290.83478062 155.27044508 305.14836051 155.30989075 320.74489403 C155.32129731 324.72021873 155.35228235 328.69541674 155.38012695 332.6706543 C155.38561113 333.50541825 155.39109531 334.34018221 155.39674568 335.20024204 C155.507813 426.50916741 155.507813 426.50916741 183.328125 512.3359375 C187.99820396 521.44446758 191.6374431 530.15428461 194.140625 540.0859375 C194.51054565 541.45045044 194.51054565 541.45045044 194.88793945 542.8425293 C196.61775873 549.38152862 197.73860917 555.65639021 198.203125 562.3984375 C198.28127441 563.41260742 198.35942383 564.42677734 198.43994141 565.47167969 C198.98303742 573.1185587 199.29422711 580.76533985 199.56640625 588.42578125 C199.62263908 589.94520073 199.62263908 589.94520073 199.68000793 591.49531555 C199.86820851 596.59461195 200.04004291 601.69333519 200.17993164 606.79418945 C201.28197358 641.16856084 210.72736464 662.88731638 233.23046875 688.4609375 C243.41458043 700.51823674 250.99191773 714.94925938 258.828125 728.5859375 C259.58561035 729.90235229 259.58561035 729.90235229 260.35839844 731.24536133 C260.82665039 732.06931396 261.29490234 732.8932666 261.77734375 733.7421875 C262.18686279 734.46212891 262.59638184 735.18207031 263.01831055 735.92382812 C265.56248823 740.82511974 266.56240964 744.49729101 266.140625 750.0859375 C264.140625 752.0859375 264.140625 752.0859375 261.328125 752.4609375 C256.83772122 751.9326547 254.58424868 749.81996369 251.7121582 746.37011719 C250.17618826 744.36015155 248.68275207 742.3252123 247.203125 740.2734375 C241.23934822 731.02539412 241.23934822 731.02539412 233.140625 724.0859375 C234.45119676 729.09215883 235.791244 734.09007192 237.140625 739.0859375 C237.5106665 740.46072266 237.5106665 740.46072266 237.88818359 741.86328125 C241.3660574 754.72436893 245.05194544 767.43072108 249.65136719 779.94311523 C251.7698675 785.95270643 253.16953404 791.68601356 252.140625 798.0859375 C250.140625 800.0859375 250.140625 800.0859375 247.828125 800.5234375 C243.87939862 799.88062158 242.64134646 798.16374853 240.140625 795.0859375 C236.1308633 787.6887718 233.07405151 779.86280999 229.890625 772.0859375 C229.33100513 770.72514689 228.77111148 769.36446885 228.2109375 768.00390625 C226.85100786 764.69920835 225.49478924 761.39300275 224.140625 758.0859375 C223.99791432 766.40227005 224.43344139 774.608995 225.078125 782.8984375 C225.20864258 784.68024414 225.20864258 784.68024414 225.34179688 786.49804688 C225.7398605 791.75543529 226.25469945 796.88682268 227.140625 802.0859375 C227.27535284 804.14571882 227.35923421 806.20949338 227.390625 808.2734375 C227.41640625 809.29824219 227.4421875 810.32304688 227.46875 811.37890625 C227.140625 814.0859375 227.140625 814.0859375 225.77734375 815.94921875 C224.140625 817.0859375 224.140625 817.0859375 221.703125 817.0859375 C218.24444953 815.73621049 217.20211374 814.17613055 215.140625 811.0859375 C214.16035819 808.35815553 213.5750856 805.58756676 213 802.75 C212.82809143 801.95242279 212.65618286 801.15484558 212.47906494 800.33309937 C212.11970983 798.65185574 211.76711112 796.96915536 211.42089844 795.28515625 C210.89308084 792.7228594 210.34291695 790.16615603 209.7890625 787.609375 C209.44137616 785.9690318 209.09497923 784.32841466 208.75 782.6875 C208.58755798 781.92998444 208.42511597 781.17246887 208.25775146 780.39199829 C207.3365956 775.86238346 206.98367393 771.70837513 207.140625 767.0859375 C206.480625 767.0859375 205.820625 767.0859375 205.140625 767.0859375 C205.12080566 768.39788086 205.10098633 769.70982422 205.08056641 771.06152344 C205.0044875 775.92955705 204.91577336 780.79729266 204.82324219 785.66503906 C204.78496194 787.77175004 204.7501074 789.87852617 204.71875 791.98535156 C204.67307902 795.01390871 204.61508755 798.04201772 204.5546875 801.0703125 C204.54313629 802.01211365 204.53158508 802.95391479 204.51968384 803.92425537 C204.49981415 804.80486633 204.47994446 805.68547729 204.45947266 806.59277344 C204.43948715 807.75193268 204.43948715 807.75193268 204.4190979 808.93450928 C204.09914146 811.40643141 203.52191544 813.01050512 202.140625 815.0859375 C199.015625 815.8359375 199.015625 815.8359375 196.140625 816.0859375 C188.24260124 807.32003204 189.66444367 793.09333715 189.015625 781.7734375 C188.92893518 780.33915937 188.84169844 778.9049142 188.75390625 777.47070312 C188.54320007 774.00946987 188.33980297 770.54785561 188.140625 767.0859375 C186.45796013 773.6450632 184.86222538 780.17530686 183.640625 786.8359375 C181.51114471 797.52724574 181.51114471 797.52724574 179.140625 802.0859375 C176.703125 803.3359375 176.703125 803.3359375 174.140625 803.0859375 C171.4547332 801.00891331 170.2698682 799.827443 169.6796875 796.44140625 C169.88740775 788.78408262 170.44394792 781.21346778 171.140625 773.5859375 C172.71553911 757.55844003 172.71553911 757.55844003 170.61328125 741.6875 C168.00722373 729.93313574 169.02447746 717.733858 169.35302734 705.78125 C169.89603456 684.4558756 166.60625886 666.26134148 157.140625 647.0859375 C156.74069336 646.26013184 156.34076172 645.43432617 155.92871094 644.58349609 C151.12609468 634.67606428 146.10173506 624.93119557 140.703125 615.3359375 C121.32089032 580.60610908 107.55511464 543.94045266 104.53881836 504.2355957 C103.16906158 486.42472292 99.95423962 470.28416659 94.078125 453.3984375 C93.52945115 451.79270945 92.98192077 450.18659022 92.43554688 448.58007812 C91.43790043 445.65158747 90.43393094 442.72545839 89.42163086 439.80200195 C88.30740213 436.56974057 87.21494508 433.33164137 86.140625 430.0859375 C84.94129298 440.59624087 83.76952714 451.1092407 82.62792969 461.62597656 C82.3442858 464.23569189 82.05374524 466.84410084 81.75488281 469.45214844 C75.73249105 522.13451239 84.37843686 574.75817602 94.60372925 626.36938477 C99.49029133 651.09411679 99.49029133 651.09411679 100.828125 661.9609375 C100.94478516 662.8375 101.06144531 663.7140625 101.18164062 664.6171875 C103.00278605 678.89826009 103.34773089 693.14930713 103.328125 707.5234375 C103.32718842 708.41976898 103.32625183 709.31610046 103.32528687 710.23959351 C103.16337179 782.40506358 90.78893682 855.50278017 76.53125 926.1015625 C76.39468994 926.7787735 76.25812988 927.4559845 76.11743164 928.15371704 C75.45416156 931.43840603 74.78515206 934.72166586 74.10742188 938.00341797 C73.74487305 939.78063232 73.74487305 939.78063232 73.375 941.59375 C73.05354004 943.15053467 73.05354004 943.15053467 72.72558594 944.73876953 C71.31973586 952.78309531 71.02336721 960.58332994 71.11328125 968.7421875 C71.12593752 971.00520675 71.13829773 973.26822767 71.15039062 975.53125 C71.17504921 979.04790653 71.20291958 982.56447233 71.23657227 986.08105469 C71.35766782 999.61705825 71.07213871 1012.68025309 69.140625 1026.0859375 C68.28656689 1035.46341383 70.81973401 1044.08230556 73.140625 1053.0859375 C73.9206427 1056.14219794 74.6975318 1059.19920068 75.47021484 1062.25732422 C75.98568786 1064.29295216 76.50651504 1066.32723478 77.03369141 1068.35986328 C80.37802919 1081.47893882 81.58475649 1093.90899944 81.578125 1107.3984375 C81.57852783 1108.24041687 81.57893066 1109.08239624 81.5793457 1109.94989014 C81.54086298 1123.94598996 80.05724321 1136.61079371 76.140625 1150.0859375 C75.58529391 1152.15407857 75.03336531 1154.22313548 74.484375 1156.29296875 C70.72180994 1170.19230258 66.34180163 1183.89527148 61.890625 1197.5859375 C61.61541016 1198.4324588 61.34019531 1199.2789801 61.05664062 1200.15115356 C58.05219608 1209.37272796 54.98978501 1218.57086745 51.8125 1227.734375 C45.8299921 1245.05386327 40.76394354 1261.87343193 38.140625 1280.0859375 C38.03443848 1280.78380371 37.92825195 1281.48166992 37.81884766 1282.20068359 C37.06549019 1287.54085464 36.92247188 1292.828815 36.890625 1298.2109375 C36.87 1299.05914063 36.849375 1299.90734375 36.828125 1300.78125 C36.75178704 1313.60602739 40.58839073 1325.20756141 45.390625 1336.9609375 C45.87716553 1338.17604004 46.36370605 1339.39114258 46.86499023 1340.64306641 C50.02621762 1348.4914505 53.30666344 1356.27852105 56.80078125 1363.984375 C59.39905811 1369.99904506 60.67433382 1374.57468985 60.140625 1381.0859375 C58.8984375 1382.80078125 58.8984375 1382.80078125 57.140625 1384.0859375 C55.01953125 1384.421875 55.01953125 1384.421875 52.703125 1384.4609375 C48.77475876 1384.72820427 48.77475876 1384.72820427 45.890625 1387.5234375 C45.313125 1388.3690625 44.735625 1389.2146875 44.140625 1390.0859375 C40.26185886 1392.41319719 36.70471775 1392.20387679 32.32421875 1391.9609375 C30.1073999 1391.93556582 30.1073999 1391.93556582 28.25390625 1393.0859375 C25.36585447 1394.4525572 23.06709468 1394.20637237 19.890625 1394.0859375 C15.97639923 1394.01158908 12.58393607 1394.0209475 8.828125 1395.1484375 C4.41134127 1396.27134862 1.58564116 1395.87969038 -2.859375 1395.0859375 C-3.189375 1394.0959375 -3.519375 1393.1059375 -3.859375 1392.0859375 C-4.601875 1392.7459375 -5.344375 1393.4059375 -6.109375 1394.0859375 C-10.89971934 1397.24915775 -16.36680481 1397.0504505 -21.859375 1396.0859375 C-27.57843519 1393.24647428 -29.70510809 1388.96064812 -31.859375 1383.0859375 C-34.31660009 1369.2452411 -28.91298921 1356.21222464 -24.82080078 1343.19873047 C-20.88272659 1330.44849025 -19.42353154 1317.96209509 -18.28613281 1304.6887207 C-16.80833071 1289.17659674 -13.51778802 1273.99283831 -10.22904968 1258.7779541 C-8.09449271 1248.78586963 -6.47990955 1239.05853678 -6.51953125 1228.81640625 C-6.52227554 1227.75600632 -6.52501984 1226.69560638 -6.52784729 1225.60307312 C-6.71423422 1212.1320506 -8.40013776 1198.79779404 -10.04602051 1185.44451904 C-10.6333687 1180.65384425 -11.19754525 1175.86037399 -11.76393127 1171.06718445 C-12.06404691 1168.53878261 -12.3686447 1166.01090663 -12.67881775 1163.48371887 C-16.52434091 1131.64938959 -15.13809741 1100.66624493 -8.89208984 1069.27392578 C-5.65092148 1052.65705248 -7.18826161 1038.30070191 -10.30606079 1021.84216309 C-11.37017456 1016.215475 -12.38864224 1010.58056879 -13.40625 1004.9453125 C-13.71868401 1003.21961029 -13.71868401 1003.21961029 -14.03742981 1001.45904541 C-16.49279763 987.76310821 -18.50333626 974.00491509 -20.47485352 960.23242188 C-21.95873059 949.90360522 -23.59991612 939.62069544 -25.41790771 929.34512329 C-26.76453927 921.71342633 -27.96112459 914.06818628 -29.09646606 906.40270996 C-31.06940027 893.11412939 -33.2177733 879.86117047 -35.515625 866.625 C-40.84930253 835.85254313 -45.825086 805.19195773 -48.859375 774.0859375 C-49.519375 774.0859375 -50.179375 774.0859375 -50.859375 774.0859375 C-52.17599104 776.71916958 -52.24703816 779.012784 -52.54199219 781.94995117 C-52.67631653 783.21656082 -52.81064087 784.48317047 -52.94903564 785.78816223 C-53.02234352 786.47970713 -53.0956514 787.17125202 -53.17118073 787.88375282 C-55.668637 811.07300842 -59.65418894 834.01568867 -63.53736115 857.00453186 C-65.0871913 866.20007362 -66.61563957 875.39921273 -68.14572525 884.59805679 C-68.52154035 886.85744448 -68.8976046 889.11679074 -69.27392197 891.37609482 C-72.15428276 908.67602946 -74.92507409 925.98534758 -77.484375 943.3359375 C-77.63400696 944.34785156 -77.78363892 945.35976563 -77.93780518 946.40234375 C-78.50604501 950.24576257 -79.07413589 954.08920303 -79.64096069 957.93283081 C-81.17123864 968.26816054 -82.81286243 978.58511689 -84.484375 988.8984375 C-84.69856583 990.22693726 -84.69856583 990.22693726 -84.91708374 991.58227539 C-86.34876834 1000.43466852 -87.84887873 1009.26115875 -89.62890625 1018.05078125 C-94.23811246 1040.82691043 -95.3736398 1060.1525755 -90.1484375 1082.9609375 C-87.10843502 1096.81837633 -86.45787244 1110.33553719 -86.484375 1124.4609375 C-86.48369522 1125.88025574 -86.48369522 1125.88025574 -86.48300171 1127.32824707 C-86.51643696 1151.40464537 -88.9007097 1175.20557998 -92.21557617 1199.03393555 C-95.21463853 1220.84918582 -94.56876131 1241.22737585 -89.62548828 1262.66894531 C-88.17110105 1269.15575338 -86.91448885 1275.68090331 -85.671875 1282.2109375 C-85.54078339 1282.8944931 -85.40969177 1283.57804871 -85.27462769 1284.28231812 C-83.63810983 1292.88196656 -82.39256322 1301.4053452 -81.796875 1310.1484375 C-80.76685858 1325.0665962 -77.39564703 1339.26103994 -73.00610352 1353.52954102 C-65.48257747 1377.99201116 -65.48257747 1377.99201116 -71.859375 1390.0859375 C-75.11329352 1393.90929176 -77.27953562 1395.87827241 -82.3828125 1396.2890625 C-91.80184198 1396.44389586 -91.80184198 1396.44389586 -95.859375 1393.0859375 C-96.519375 1393.7459375 -97.179375 1394.4059375 -97.859375 1395.0859375 C-100.72265625 1395.31640625 -100.72265625 1395.31640625 -104.171875 1395.2734375 C-105.30238281 1395.26699219 -106.43289063 1395.26054688 -107.59765625 1395.25390625 C-110.859375 1395.0859375 -110.859375 1395.0859375 -113.4375 1394.56640625 C-116.1463997 1394.0289955 -118.54165599 1394.09369414 -121.296875 1394.2109375 C-126.04400381 1394.28084167 -128.64319127 1393.28985172 -132.859375 1391.0859375 C-133.973125 1391.2715625 -135.086875 1391.4571875 -136.234375 1391.6484375 C-140.54196968 1392.16831962 -142.48315231 1391.27404884 -146.2578125 1389.38671875 C-148.25349886 1387.76583202 -148.49132011 1386.5834528 -148.859375 1384.0859375 C-149.519375 1384.4159375 -150.179375 1384.7459375 -150.859375 1385.0859375 C-154.45887097 1385.4858815 -156.49785973 1385.25515741 -159.796875 1383.7109375 C-162.09847281 1380.7816312 -162.18700894 1380.20900539 -161.984375 1376.6484375 C-160.65195345 1368.19743045 -156.94331453 1360.48360075 -153.46191406 1352.73779297 C-134.28627688 1309.96052674 -136.8707663 1273.05030887 -152.53439331 1229.67266846 C-154.09311937 1225.34901396 -155.62030057 1221.01422935 -157.1484375 1216.6796875 C-157.45964035 1215.7977774 -157.7708432 1214.91586731 -158.09147644 1214.00723267 C-177.79387648 1157.99256199 -189.94516176 1110.26808675 -173.35546875 1051.7265625 C-170.07364524 1040.09897755 -169.01339152 1030.5364158 -170.86328125 1018.45703125 C-171.89359717 1010.89684285 -172.06391885 1003.38077309 -172.1328125 995.7578125 C-172.14957283 993.952342 -172.14957283 993.952342 -172.16667175 992.11039734 C-172.20531703 987.09653835 -172.23243553 982.08285335 -172.24023438 977.06884766 C-172.27862121 962.34941711 -172.82214361 948.46813942 -176.35443115 934.1418457 C-177.08293649 931.1756939 -177.71291573 928.18972473 -178.3515625 925.203125 C-178.57851807 924.18017334 -178.80547363 923.15722168 -179.03930664 922.10327148 C-189.90818026 872.96618951 -195.94639183 822.78763025 -201.671875 772.8359375 C-201.78354004 771.88847656 -201.89520508 770.94101562 -202.01025391 769.96484375 C-203.93362735 752.56552291 -204.04582891 735.10315227 -204.04467773 717.61791992 C-204.04686132 713.92159445 -204.06508451 710.22556983 -204.08398438 706.52929688 C-204.14162572 684.01913304 -202.49725105 662.38254697 -198.20495605 640.27996826 C-197.5885605 637.10368035 -196.98822354 633.92468717 -196.39160156 630.74462891 C-195.59020012 626.47789271 -194.78418002 622.21208825 -193.97265625 617.94726562 C-190.13387017 597.75851788 -186.65144387 577.60026353 -184.046875 557.2109375 C-183.88862244 555.97231964 -183.88862244 555.97231964 -183.72717285 554.7086792 C-179.9020283 524.5051863 -180.33203638 495.35521451 -183.234375 465.0859375 C-183.34533508 463.92015167 -183.45629517 462.75436584 -183.57061768 461.55325317 C-183.89513399 458.18821158 -184.2298567 454.82440114 -184.5703125 451.4609375 C-184.66938904 450.46106308 -184.76846558 449.46118866 -184.87054443 448.43101501 C-185.52180346 442.22774327 -186.52274701 436.17840667 -187.859375 430.0859375 C-188.05391769 430.77488098 -188.24846039 431.46382446 -188.44889832 432.17364502 C-191.78426987 443.96468717 -195.1792964 455.67921877 -199.54907227 467.13574219 C-203.56049778 477.99810183 -204.21774013 489.35409042 -205.06210327 500.80526733 C-208.29396207 543.59118471 -223.82304324 581.70791062 -243.734375 619.4609375 C-244.14026855 620.23066895 -244.54616211 621.00040039 -244.96435547 621.79345703 C-247.22875192 626.06575349 -249.53454607 630.31186223 -251.875 634.54296875 C-264.41669871 657.49009946 -273.08946925 680.92839322 -270.359375 707.3984375 C-269.38865207 717.24842018 -269.16456519 726.65599802 -271.359375 736.3359375 C-274.73181864 751.44199839 -273.36441767 767.91757718 -272.08642578 783.22680664 C-271.82118849 786.56680008 -271.69286576 789.86081196 -271.671875 793.2109375 C-271.65769531 794.26539063 -271.64351563 795.31984375 -271.62890625 796.40625 C-271.859375 799.0859375 -271.859375 799.0859375 -273.859375 802.0859375 C-276.796875 802.5234375 -276.796875 802.5234375 -279.859375 802.0859375 C-287.07558617 794.39335053 -287.17034448 779.19616274 -288.859375 769.0859375 C-289.97910284 772.44512102 -290.13326841 775.27122108 -290.32421875 778.80859375 C-290.40284091 780.16602455 -290.48162227 781.52344613 -290.56054688 782.88085938 C-290.67926332 785.00434802 -290.79578166 787.1279165 -290.90893555 789.25170898 C-292.07885521 810.89649156 -292.07885521 810.89649156 -295.27319336 814.82446289 C-296.859375 816.0859375 -296.859375 816.0859375 -299.359375 816.4609375 C-302.29371894 816.02078591 -303.11509482 815.44071574 -304.859375 813.0859375 C-306.14473439 809.22985932 -306.07342897 805.53776613 -306.140625 801.515625 C-306.15903442 800.67879181 -306.17744385 799.84195862 -306.19641113 798.97976685 C-306.2751332 795.39728623 -306.34303146 791.81462035 -306.41162109 788.23193359 C-306.46320748 785.61806537 -306.52049376 783.00436577 -306.578125 780.390625 C-306.59170044 779.57399384 -306.60527588 778.75736267 -306.6192627 777.91598511 C-306.35174089 774.19540312 -306.35174089 774.19540312 -307.859375 771.0859375 C-308.11630127 772.27147217 -308.37322754 773.45700684 -308.63793945 774.6784668 C-309.59608663 779.08804906 -310.5661549 783.49493806 -311.53979492 787.90112305 C-311.95905522 789.8063364 -312.37510514 791.71225924 -312.7878418 793.61889648 C-313.38262172 796.36375932 -313.98900644 799.10584003 -314.59765625 801.84765625 C-314.77903641 802.69680099 -314.96041656 803.54594574 -315.14729309 804.42082214 C-316.12493747 808.76932765 -317.06439004 812.49742925 -319.859375 816.0859375 C-322.859375 817.0859375 -322.859375 817.0859375 -325.859375 817.0859375 C-327.5234375 815.94140625 -327.5234375 815.94140625 -328.859375 814.0859375 C-330.35797518 804.63887949 -328.21457488 794.53165577 -326.93383789 785.15942383 C-325.78484955 776.41676121 -325.53649919 767.88729286 -325.859375 759.0859375 C-326.16117676 759.78041992 -326.46297852 760.47490234 -326.77392578 761.19042969 C-328.17406476 764.40706618 -329.57919607 767.62149968 -330.984375 770.8359375 C-331.45875 771.92777344 -331.933125 773.01960937 -332.421875 774.14453125 C-334.84732704 779.68373928 -337.32189087 785.20074113 -339.9140625 790.6640625 C-340.35991699 791.6118457 -340.80577148 792.55962891 -341.26513672 793.53613281 C-343.10714964 796.48222514 -344.97137511 798.17118507 -347.859375 800.0859375 C-352.15205793 799.79325457 -352.15205793 799.79325457 -353.859375 798.0859375 C-354.52519442 791.24631053 -353.44859188 785.44363621 -351.19140625 779.02734375 C-350.91471603 778.19871323 -350.63802582 777.3700827 -350.35295105 776.51634216 C-349.47328467 773.88872221 -348.57398934 771.26842592 -347.671875 768.6484375 C-344.1662713 758.34920888 -340.72598615 748.07029526 -337.93359375 737.55078125 C-337.72136673 736.75756973 -337.50913971 735.96435822 -337.29048157 735.14710999 C-336.38989869 731.6544302 -335.859375 728.71634698 -335.859375 725.0859375 C-341.99981388 731.59813572 -347.5693583 738.15197401 -352.75390625 745.45703125 C-355.76515705 749.2169047 -358.16341887 751.88641325 -363.046875 752.4609375 C-365.859375 752.0859375 -365.859375 752.0859375 -367.859375 750.0859375 C-370.05563021 737.45747007 -356.6792216 722.48151197 -350.32617188 712.41748047 C-349.1419632 710.5351248 -347.97455987 708.6422029 -346.8125 706.74609375 C-340.96927499 697.27172177 -334.23801763 688.55101368 -326.671875 680.3984375 C-303.6969072 655.51787769 -301.82448826 625.93417604 -301.38256836 593.78930664 C-301.14042332 576.9102021 -300.82503498 559.7160481 -296.609375 543.2734375 C-296.28296021 541.96656982 -296.28296021 541.96656982 -295.94995117 540.63330078 C-292.77425381 528.39239 -287.66537307 517.57373466 -281.6862793 506.49267578 C-260.18037899 466.09059814 -257.8532446 416.89289213 -257.66014481 371.86839676 C-257.64804295 369.29096933 -257.62852709 366.71368744 -257.60702515 364.13632202 C-257.54640828 356.82172643 -257.49154325 349.50715761 -257.45800781 342.19238281 C-257.4367878 337.67923406 -257.40129522 333.1663739 -257.35725021 328.65339279 C-257.34332846 326.96098646 -257.33442338 325.26852939 -257.33119583 323.57606888 C-257.29942934 308.52455683 -256.26667883 292.98888083 -251.109375 278.7109375 C-250.85260986 277.97746094 -250.59584473 277.24398438 -250.33129883 276.48828125 C-243.9793599 258.97412302 -233.7081549 245.61311292 -216.671875 237.4609375 C-205.03943532 232.51715064 -193.55295089 229.4963022 -181.19433594 227.02905273 C-139.74872165 218.87029801 -139.74872165 218.87029801 -106.984375 194.3359375 C-100.29933775 183.92118679 -97.92139415 172.30621852 -99.859375 160.0859375 C-100.78461042 156.82535283 -102.09455863 153.77633329 -103.51098633 150.70239258 C-106.20430237 144.77962399 -107.09846313 138.97302041 -107.92578125 132.546875 C-109.25530086 127.61819563 -112.14093975 125.51636684 -115.95703125 122.33984375 C-118.80208957 118.96900463 -119.89549847 115.1643804 -121.296875 111.0234375 C-123.55758564 104.5957235 -125.93785767 98.35449808 -128.9140625 92.21484375 C-130.8623354 87.82720437 -131.27317394 83.88600522 -130.859375 79.0859375 C-129.36191639 76.47746121 -127.98908598 74.21564848 -125.859375 72.0859375 C-123.52640067 72.04500813 -121.19232275 72.04352027 -118.859375 72.0859375 C-119.09914063 70.46365234 -119.09914063 70.46365234 -119.34375 68.80859375 C-121.81687288 48.85259691 -121.18159463 25.41159336 -108.796875 8.6484375 C-107.82984436 7.45103391 -106.84992575 6.26395822 -105.859375 5.0859375 C-104.97185547 3.88904297 -104.97185547 3.88904297 -104.06640625 2.66796875 C-94.76997092 -8.20803789 -78.11723085 -16.81141337 -64.01171875 -18.69921875 C-39.85546316 -20.34555587 -18.86745634 -16.23628045 0 0 Z " fill="#006AEF" transform="translate(559.859375,54.9140625)"/>
<path d="M0 0 C0.33 0 0.66 0 1 0 C1 6.27 1 12.54 1 19 C0.67 19 0.34 19 0 19 C0 17.02 0 15.04 0 13 C-1.65 13 -3.3 13 -5 13 C-4.54554036 11.58208592 -4.08625056 10.16571954 -3.625 8.75 C-3.24214844 7.56664062 -3.24214844 7.56664062 -2.8515625 6.359375 C-2.04826333 4.13372042 -1.10288338 2.09068328 0 0 Z " fill="#DEF0FC" transform="translate(234,812)"/>
<path d="M0 0 C2 2 2 2 2.22705078 4.06298828 C2.21657715 4.89040527 2.20610352 5.71782227 2.1953125 6.5703125 C2.18886719 7.46621094 2.18242187 8.36210938 2.17578125 9.28515625 C2.15902344 10.22230469 2.14226562 11.15945313 2.125 12.125 C2.11597656 13.06988281 2.10695313 14.01476563 2.09765625 14.98828125 C2.07404522 17.32577292 2.04111516 19.66276123 2 22 C1.67 22 1.34 22 1 22 C0.67 20.35 0.34 18.7 0 17 C-0.33 17 -0.66 17 -1 17 C-1.02699725 14.72923158 -1.04639453 12.45837179 -1.0625 10.1875 C-1.07990234 8.29064453 -1.07990234 8.29064453 -1.09765625 6.35546875 C-1 3 -1 3 0 0 Z " fill="#167AEE" transform="translate(423,1342)"/>
<path d="M0 0 C1.22213016 3.66639049 0.63855512 5.35293431 -0.3125 9.0625 C-0.57675781 10.12597656 -0.84101563 11.18945312 -1.11328125 12.28515625 C-2 15 -2 15 -4 17 C-4.56131481 10.54487966 -2.63463787 5.84560277 0 0 Z " fill="#0D5DEF" transform="translate(210,833)"/>
<path d="M0 0 C0.66 0.33 1.32 0.66 2 1 C2.16682272 5.92127034 2.24828052 9.50343896 0 14 C-0.66 14 -1.32 14 -2 14 C-1.03644647 4.58997722 -1.03644647 4.58997722 0 0 Z " fill="#0E66ED" transform="translate(263,599)"/>
<path d="M0 0 C2 2 2 2 2.3125 5.9375 C2.25612142 8.76155426 2.23113287 9.69182284 0.5 12 C0.005 12.33 -0.49 12.66 -1 13 C-2.07310858 9.72814447 -1.89263102 7.57052408 -1.0625 4.25 C-0.86785156 3.45078125 -0.67320312 2.6515625 -0.47265625 1.828125 C-0.31667969 1.22484375 -0.16070313 0.6215625 0 0 Z " fill="#DDF0FD" transform="translate(747,820)"/>
<path d="M0 0 C5.47035213 3.79037089 9.89962427 7.75027653 14 13 C10.06048404 11.15014033 7.21678125 8.92434659 4 6 C4 5.34 4 4.68 4 4 C2.68 3.34 1.36 2.68 0 2 C0 1.34 0 0.68 0 0 Z " fill="#115BED" transform="translate(682,297)"/>
<path d="M0 0 C0.66 0 1.32 0 2 0 C2.33 3.63 2.66 7.26 3 11 C2.01 11.495 2.01 11.495 1 12 C-0.26237731 9.47524538 -0.09856404 7.68799534 -0.0625 4.875 C-0.05347656 3.96492187 -0.04445313 3.05484375 -0.03515625 2.1171875 C-0.02355469 1.41851563 -0.01195312 0.71984375 0 0 Z " fill="#D8ECFA" transform="translate(765,822)"/>
<path d="M0 0 C0.66 0.33 1.32 0.66 2 1 C1.360625 1.2475 0.72125 1.495 0.0625 1.75 C-2.18741541 2.81562433 -2.18741541 2.81562433 -2.75 5.125 C-2.8325 5.74375 -2.915 6.3625 -3 7 C-6.75 8.125 -6.75 8.125 -9 7 C-6.03 4.69 -3.06 2.38 0 0 Z " fill="#045AED" transform="translate(469,47)"/>
<path d="M0 0 C0 0.66 0 1.32 0 2 C-0.93972656 2.30744141 -0.93972656 2.30744141 -1.8984375 2.62109375 C-2.71570313 2.89050781 -3.53296875 3.15992188 -4.375 3.4375 C-5.18710937 3.70433594 -5.99921875 3.97117187 -6.8359375 4.24609375 C-9.01031799 4.95179729 -9.01031799 4.95179729 -11 6 C-11 5.01 -11 4.02 -11 3 C-4.5 0 -4.5 0 0 0 Z " fill="#075DEE" transform="translate(358,288)"/>
<path d="M0 0 C0.33 0 0.66 0 1 0 C1.33 2.97 1.66 5.94 2 9 C0.02 9.99 0.02 9.99 -2 11 C-1.34 7.37 -0.68 3.74 0 0 Z " fill="#E6F3FC" transform="translate(252,822)"/>
<path d="M0 0 C2 3 2 3 3 6 C2.40206327 8.35188447 1.74118205 10.68925595 1 13 C0.34 13 -0.32 13 -1 13 C-0.67 8.71 -0.34 4.42 0 0 Z " fill="#1569F0" transform="translate(377,602)"/>
<path d="M0 0 C1.80330533 3.60661066 2.46599103 6.08393425 3 10 C1.68 9.67 0.36 9.34 -1 9 C-0.67 6.03 -0.34 3.06 0 0 Z " fill="#1066F1" transform="translate(795,790)"/>
<path d="M0 0 C0.99 0 1.98 0 3 0 C5.42857143 6.28571429 5.42857143 6.28571429 4 10 C3.67 8.35 3.34 6.7 3 5 C2.34 5 1.68 5 1 5 C0.67 3.35 0.34 1.7 0 0 Z " fill="#065AEE" transform="translate(760,694)"/>
<path d="M0 0 C0.33 0.66 0.66 1.32 1 2 C0.06421005 4.35981813 -0.93347808 6.69631264 -2 9 C-3.0625 7.1875 -3.0625 7.1875 -4 5 C-3 2 -3 2 0 0 Z " fill="#0357EF" transform="translate(583,152)"/>
</svg>
