<svg width="2141" height="430" viewBox="0 0 2141 430" fill="none" xmlns="http://www.w3.org/2000/svg">
<g clip-path="url(#clip0_5026_48)">
<path d="M1546.12 309.91H1528.19V121.91H1544.69L1625.69 260.89L1707.69 121.91H1722.19V309.91H1704.19V160.91L1699.39 166.61L1630.71 284.93L1620.36 285.75L1548.68 162.94C1547.95 161.17 1546.21 162.96 1546.21 163.42" fill="#425052"/>
<path d="M1964.19 309.91V121.91C1988.8 122.79 2014.2 120.75 2038.73 121.87C2057.28 122.71 2077.42 125.84 2093.87 134.73C2148.84 164.42 2156.59 245.26 2109.71 285.94C2069.46 320.87 2013.15 307.14 1964.18 309.91H1964.19ZM1983.19 292.91H2051.69C2055.42 292.91 2070.27 288.32 2074.45 286.67C2140.02 260.79 2136.03 162.66 2067.7 142.89C2041.17 135.21 2010.58 140.5 1983.18 138.91V292.91H1983.19Z" fill="#425052"/>
<path d="M892.189 123.41C893.299 122.85 894.189 121.91 895.479 121.91C911.549 121.91 943.929 121.87 961.729 121.87C990.579 121.87 1023.25 131.1 1034.67 160.93C1048.15 196.11 1032.77 234.17 996.199 245.4L1042.19 309.91H1020.19L979.189 249.91H912.189V309.91H893.689L892.189 308.41V123.41ZM912.189 138.91V232.41L913.689 233.91H972.689C989.109 233.91 1009.74 221.86 1016.22 206.44C1030.32 172.86 1006.81 138.91 970.689 138.91H912.189Z" fill="#425052"/>
<path d="M694.189 205.91H812.189V121.91H829.689L831.189 123.41V309.91H812.189V224.41L810.689 222.91H694.189V309.91H675.689L674.189 308.41V123.41L675.689 121.91H692.689L694.189 123.41V205.91Z" fill="#425052"/>
<path d="M1477.19 138.91H1368.19V205.91H1463.69L1465.19 207.41V222.91H1368.19V292.91H1481.19V309.91H1349.69L1348.19 308.41V123.41L1349.69 121.91H1475.69L1477.19 123.41V138.91Z" fill="#425052"/>
<path d="M1899.83 222.91H1804.19V292.91H1915.69L1917.03 294.57V309.91H1784.19V123.41L1785.69 121.91H1912.19V138.91H1804.19V205.91H1899.69" fill="#425052"/>
<path d="M1320.19 121.91L1238.7 308.91L1219.63 309.97L1136.19 121.91H1155.69L1228.69 284.89L1302.69 121.91H1320.19Z" fill="#425052"/>
<path d="M642.189 121.91V138.91H577.689L576.189 140.41V309.91H557.189V138.91H491.189V121.91H642.189Z" fill="#425052"/>
<path d="M1106.19 121.91H1086.19V309.91H1106.19V121.91Z" fill="#425052"/>
<path d="M190.335 391.8C181.625 394.63 173.115 398.02 164.015 399.6C158.385 400.58 143.305 402.62 138.505 400.7C133.875 398.85 122.605 384.23 119.525 379.55C114.995 372.68 111.305 365.01 108.475 357.3C125.675 358.07 142.615 355.02 159.085 350.44C166.775 366.23 178.015 379.51 190.345 391.8H190.335Z" fill="#425052"/>
<path d="M73.1344 321.97C72.3744 322.81 54.8544 313.49 52.8144 312.2C48.6544 309.57 31.8644 296.74 30.2144 293.05C28.4344 289.07 29.3344 277.39 29.8944 272.71C31.2344 261.47 35.0144 250.71 38.6344 240.1C50.9244 252.82 64.8144 263.28 80.2744 271.89C74.9344 288 72.5744 304.98 73.1444 321.97H73.1344Z" fill="#425052"/>
<path d="M321.975 357.29C318.755 366.31 314.045 374.94 308.515 382.75C305.845 386.52 296.095 398.8 292.475 400.42C287.405 402.69 272.395 400.63 266.435 399.6C257.335 398.02 248.825 394.63 240.115 391.8C252.575 379.58 263.585 366.18 271.375 350.44C287.845 355.03 304.785 358.07 321.985 357.3L321.975 357.29Z" fill="#425052"/>
<path d="M190.335 38.63C177.735 51 167.055 64.76 158.545 80.26C142.435 74.92 125.455 72.56 108.465 73.13C113.055 60.91 120.175 48.36 128.915 38.61C133.645 33.33 137.345 29.01 144.985 28.92C148.075 28.89 154.505 29.51 157.715 29.89C168.955 31.23 179.715 35.01 190.325 38.63H190.335Z" fill="#425052"/>
<path d="M391.806 240.9C395.456 251.25 399.216 261.7 400.546 272.71C400.966 276.23 401.546 282.8 401.516 286.26C401.496 288.08 401.166 290.82 400.446 292.46C398.496 296.91 382.376 309.2 377.636 312.2C375.586 313.49 358.076 322.81 357.316 321.97C357.876 304.97 355.526 288 350.186 271.89C360.756 265.51 371.276 259.09 380.606 250.95C382.196 249.57 390.586 240 391.826 240.91L391.806 240.9Z" fill="#425052"/>
<path d="M321.975 73.1299C304.975 72.5699 288.005 74.9199 271.895 80.2599C263.295 64.8099 252.825 50.9099 240.105 38.6199C244.745 37.4999 249.005 35.3499 253.575 34.0199C263.205 31.2299 276.285 28.8099 286.265 28.9199C293.245 28.9899 295.535 32.2899 299.915 36.9999C309.285 47.0799 317.155 60.2699 321.975 73.1299Z" fill="#425052"/>
<path d="M73.1349 108.46C72.5749 125.46 74.9249 142.43 80.2649 158.54C64.7549 167 51.0749 177.86 38.6349 190.33C35.0149 179.72 31.2349 168.96 29.8949 157.72C29.5149 154.5 28.8949 148.09 28.9249 144.99C28.9949 138.12 32.3549 134.86 37.0049 130.52C47.1149 121.09 60.1849 113.23 73.1349 108.46Z" fill="#425052"/>
<path d="M391.806 190.33C379.386 177.81 365.606 167.13 350.166 158.54C355.506 142.43 357.866 125.45 357.296 108.46C370.186 113.24 383.386 121.08 393.426 130.52C398.116 134.93 401.606 138.02 401.496 145C401.386 152.73 399.956 162.26 398.166 169.81C396.506 176.81 393.496 183.37 391.796 190.34L391.806 190.33Z" fill="#425052"/>
<path d="M91.2044 184.8L114.014 215.5C104.884 224.35 98.4444 235.32 91.2044 245.63C77.4144 237.77 64.5444 228.11 54.7344 215.51C64.0344 202.32 77.5744 193.05 91.2044 184.8Z" fill="#425052"/>
<path d="M214.925 54.73C228.035 64.05 237.405 77.62 245.625 91.2C235.315 98.45 224.345 104.88 215.505 114.01L184.805 91.2C192.945 77.5 202.225 64.61 214.925 54.73Z" fill="#425052"/>
<path d="M339.236 184.8C352.986 192.94 366.166 202.49 375.706 215.5C365.766 228 353.086 237.8 339.236 245.63C331.986 235.32 325.556 224.35 316.426 215.5L339.236 184.8Z" fill="#425052"/>
<path d="M214.925 316.41C224.455 325.07 234.835 332.26 245.625 339.22C237.595 352.88 227.945 365.73 215.505 375.69C202.195 366.52 193.095 352.8 184.805 339.22C195.255 332.14 206.125 325.63 214.925 316.41Z" fill="#425052"/>
<path d="M148.535 106.11C146.315 118.55 143.665 131.03 143.785 143.77C131.025 143.57 118.585 146.44 106.125 148.52C101.105 133.11 100.645 117.31 101.235 101.21C117.325 100.62 133.135 101.07 148.535 106.1V106.11Z" fill="#425052"/>
<path d="M329.206 101.22C329.796 117.31 329.336 133.12 324.316 148.53C311.846 146.44 299.416 143.57 286.656 143.78C286.776 131.04 284.116 118.56 281.906 106.12C297.316 101.1 313.116 100.64 329.206 101.23V101.22Z" fill="#425052"/>
<path d="M143.785 286.65C143.655 299.39 146.335 311.86 148.525 324.3C133.365 329.72 117.155 329.57 101.235 329.2C100.645 313.11 101.095 297.3 106.125 281.9C118.595 283.92 131.035 287.26 143.785 286.65Z" fill="#425052"/>
<path d="M324.316 281.9C329.336 297.31 329.796 313.11 329.206 329.2C313.116 329.79 297.306 329.34 281.906 324.31C284.126 311.87 286.776 299.39 286.656 286.65C299.396 286.77 311.876 284.11 324.316 281.9Z" fill="#425052"/>
<path d="M388.605 338.03C377.485 359.7 359.965 377.77 338.045 388.59C343.615 376.88 349.065 365.17 352.675 352.66C358.745 350.56 364.975 348.86 370.935 346.44C376.895 344.02 382.585 340.59 388.605 338.03Z" fill="#425052"/>
<path d="M77.7659 352.66C80.0159 358.68 81.5759 364.95 83.9859 370.92C86.4359 377.02 89.8459 382.57 92.3959 388.59C70.5659 377.78 53.1359 359.87 41.8359 338.42C42.2859 337.31 43.3559 338.36 44.0059 338.66C49.2059 341.07 53.8959 344.17 59.4959 346.44C65.4559 348.86 71.6959 350.56 77.7559 352.66H77.7659Z" fill="#425052"/>
<path d="M388.605 92.3898C376.805 86.9598 365.305 81.1398 352.665 77.7598C349.135 65.1998 343.485 53.5898 338.035 41.8198C359.985 53.1098 377.295 70.4298 388.595 92.3798L388.605 92.3898Z" fill="#425052"/>
<path d="M77.7662 77.7598C65.1262 81.1298 53.6262 86.9598 41.8262 92.3898C52.9262 70.4698 70.3962 53.3698 91.9962 41.8298C93.1062 42.2798 92.0562 43.3498 91.7562 43.9998C89.3462 49.1998 86.2262 53.8798 83.9762 59.4898C81.5762 65.4698 80.0062 71.7398 77.7562 77.7598H77.7662Z" fill="#425052"/>
<path d="M250.535 5.71993L231.305 12.5599L215.565 20.1499C203.855 14.9799 192.475 9.02993 179.895 6.10993C202.415 -2.31007 227.815 -1.62007 250.535 5.71993Z" fill="#425052"/>
<path d="M424.715 250.52L417.875 231.29L410.285 215.55C415.455 203.84 421.405 192.46 424.325 179.88C432.615 202.47 432.025 227.73 424.715 250.52Z" fill="#425052"/>
<path d="M6.50533 250.53C5.35533 250.65 5.20533 248.63 4.89533 247.74C-2.25467 226.58 -1.33467 200.8 6.10533 179.89C9.18533 192.2 14.3953 203.64 20.1453 214.88C15.1053 226.55 8.66533 237.8 6.49533 250.54L6.50533 250.53Z" fill="#425052"/>
<path d="M250.535 423.92C248.785 425.96 244.275 426.73 241.565 427.38C224.165 431.6 204.245 431.54 186.945 426.89C184.785 426.31 181.045 425.76 179.895 423.92C192.345 422.01 203.775 415.94 214.945 410.45C226.505 415.59 237.825 421.99 250.535 423.92Z" fill="#425052"/>
<path d="M171.906 146.95C171.336 137.64 172.576 128.43 174.306 119.31C174.466 118.46 173.876 117.61 175.466 118.1C177.536 118.74 187.686 126.62 189.906 128.55C190.946 129.45 197.326 135.61 197.366 136.15L188.996 150.93L171.896 146.96L171.906 146.95Z" fill="#425052"/>
<path d="M146.955 171.91L150.925 189L136.155 197.29C135.015 197.31 129.695 191.22 128.545 189.9C126.435 187.47 118.835 177.87 118.095 175.46C117.605 173.87 118.455 174.46 119.305 174.3C128.425 172.57 137.635 171.33 146.945 171.9L146.955 171.91Z" fill="#425052"/>
<path d="M312.346 256.15C302.756 257.46 293.246 259.3 283.486 258.52L279.496 240.98L294.706 233.24C297.196 234.73 313.876 254.78 312.346 256.15Z" fill="#425052"/>
<path d="M150.945 240.98L146.955 258.52C137.195 259.29 127.695 257.46 118.095 256.14C116.595 254.8 133.375 234.37 136.145 233.01L150.945 240.97V240.98Z" fill="#425052"/>
<path d="M256.156 118.09C257.136 127.76 259.506 137.12 258.526 146.95L241.436 150.92L233.246 135.73C234.636 133.18 254.836 116.56 256.156 118.09Z" fill="#425052"/>
<path d="M189.455 279.49L197.125 294.7C196.045 297.52 175.545 313.8 174.285 312.34C173.595 302.93 170.525 293.74 172.225 284.2L189.455 279.49Z" fill="#425052"/>
<path d="M256.154 312.34C254.894 313.8 234.394 297.52 233.314 294.7L240.984 279.49L258.214 284.2C259.914 293.74 256.844 302.93 256.154 312.34Z" fill="#425052"/>
<path d="M279.496 189.45L283.486 171.91C286.576 170.93 312.206 173.23 312.326 175.48C307.076 183.37 301.556 191.19 294.296 197.37L279.496 189.46V189.45Z" fill="#425052"/>
<path d="M221.154 201.2H209.534L201.314 209.42V221.05L209.534 229.27H221.154L229.374 221.05V209.42L221.154 201.2Z" fill="#425052"/>
</g>
<defs>
<clipPath id="clip0_5026_48">
<rect width="2141" height="430" fill="white"/>
</clipPath>
</defs>
</svg>
