<svg width="24" height="24" viewBox="0 0 24 24" fill="none" xmlns="http://www.w3.org/2000/svg">
<path d="M19 8C20.6569 8 22 6.65685 22 5C22 3.34315 20.6569 2 19 2C17.3431 2 16 3.34315 16 5C16 6.65685 17.3431 8 19 8Z" stroke="#3A3A3A" stroke-width="1.5" stroke-linecap="round" stroke-linejoin="round"/>
<path d="M11.3589 15.7375L11.3589 10.9725L9.85307 12.4793C9.60279 12.7296 9.19625 12.7296 8.94596 12.4793C8.69567 12.229 8.69567 11.8225 8.94596 11.5722L11.5467 8.97214C11.797 8.72185 12.2027 8.72185 12.453 8.97214L15.0539 11.5722C15.3041 11.8225 15.3041 12.229 15.0539 12.4793C14.8036 12.7296 14.397 12.7296 14.1467 12.4793L12.6408 10.9725L12.6408 15.7375C12.6406 16.0914 12.3537 16.3784 11.9998 16.3784C11.646 16.3784 11.3591 16.0914 11.3589 15.7375Z" fill="#3A3A3A"/>
<path d="M14.02 2.2C13.36 2.07 12.69 2 12 2C6.48 2 2 6.48 2 12C2 17.52 6.48 22 12 22C17.52 22 22 17.52 22 12C22 11.32 21.93 10.65 21.8 10.01" stroke="#3A3A3A" stroke-width="1.5" stroke-linecap="round" stroke-linejoin="round"/>
</svg>
